<mxfile host="app.diagrams.net" modified="2024-04-24T12:19:02.678Z" agent="Mozilla/5.0 (Windows NT 10.0; Win64; x64) AppleWebKit/537.36 (KHTML, like Gecko) Chrome/124.0.0.0 Safari/537.36" etag="xIFYpsyhFAwI8p34NKse" version="24.2.9" type="google">
  <diagram name="Página-1" id="zlxeU8CULcIi4Diqghu0">
    <mxGraphModel dx="1184" dy="1814" grid="1" gridSize="10" guides="1" tooltips="1" connect="1" arrows="1" fold="1" page="1" pageScale="1" pageWidth="827" pageHeight="1169" math="0" shadow="0">
      <root>
        <mxCell id="0" />
        <mxCell id="1" parent="0" />
        <mxCell id="Mx6JdNAIDPZeF-GQ_guS-4" value="" style="endArrow=none;html=1;rounded=0;entryX=0.5;entryY=1;entryDx=0;entryDy=0;" edge="1" parent="1">
          <mxGeometry width="50" height="50" relative="1" as="geometry">
            <mxPoint x="400" y="-520" as="sourcePoint" />
            <mxPoint x="400" y="-584" as="targetPoint" />
          </mxGeometry>
        </mxCell>
        <mxCell id="Mx6JdNAIDPZeF-GQ_guS-5" value="inicio" style="ellipse;whiteSpace=wrap;html=1;" vertex="1" parent="1">
          <mxGeometry x="330" y="-690" width="140" height="90" as="geometry" />
        </mxCell>
        <mxCell id="Mx6JdNAIDPZeF-GQ_guS-15" style="edgeStyle=orthogonalEdgeStyle;rounded=0;orthogonalLoop=1;jettySize=auto;html=1;entryX=0.5;entryY=1;entryDx=0;entryDy=0;" edge="1" parent="1" source="Mx6JdNAIDPZeF-GQ_guS-7" target="Mx6JdNAIDPZeF-GQ_guS-5">
          <mxGeometry relative="1" as="geometry">
            <mxPoint x="400" y="-580" as="targetPoint" />
            <Array as="points">
              <mxPoint x="400" y="-610" />
              <mxPoint x="400" y="-610" />
            </Array>
          </mxGeometry>
        </mxCell>
        <mxCell id="Mx6JdNAIDPZeF-GQ_guS-7" value="int colocação" style="rounded=0;whiteSpace=wrap;html=1;" vertex="1" parent="1">
          <mxGeometry x="320" y="-560" width="160" height="60" as="geometry" />
        </mxCell>
        <mxCell id="Mx6JdNAIDPZeF-GQ_guS-8" value="" style="endArrow=none;html=1;rounded=0;entryX=0.5;entryY=1;entryDx=0;entryDy=0;" edge="1" parent="1" target="Mx6JdNAIDPZeF-GQ_guS-7">
          <mxGeometry width="50" height="50" relative="1" as="geometry">
            <mxPoint x="400" y="-440" as="sourcePoint" />
            <mxPoint x="440" y="-380" as="targetPoint" />
          </mxGeometry>
        </mxCell>
        <mxCell id="Mx6JdNAIDPZeF-GQ_guS-10" value="colocação=10" style="rhombus;whiteSpace=wrap;html=1;" vertex="1" parent="1">
          <mxGeometry x="330" y="-460" width="140" height="110" as="geometry" />
        </mxCell>
        <mxCell id="Mx6JdNAIDPZeF-GQ_guS-11" value="" style="endArrow=none;html=1;rounded=0;entryX=0.5;entryY=1;entryDx=0;entryDy=0;" edge="1" parent="1" target="Mx6JdNAIDPZeF-GQ_guS-10">
          <mxGeometry width="50" height="50" relative="1" as="geometry">
            <mxPoint x="400" y="-290" as="sourcePoint" />
            <mxPoint x="440" y="-380" as="targetPoint" />
          </mxGeometry>
        </mxCell>
        <mxCell id="Mx6JdNAIDPZeF-GQ_guS-12" value="printf(&quot;%d°colocado\n&quot;,colocação);" style="rounded=0;whiteSpace=wrap;html=1;" vertex="1" parent="1">
          <mxGeometry x="310" y="-320" width="190" height="60" as="geometry" />
        </mxCell>
        <mxCell id="Mx6JdNAIDPZeF-GQ_guS-16" value="fim" style="ellipse;whiteSpace=wrap;html=1;" vertex="1" parent="1">
          <mxGeometry x="150" y="-445" width="120" height="80" as="geometry" />
        </mxCell>
        <mxCell id="Mx6JdNAIDPZeF-GQ_guS-17" value="não" style="endArrow=none;html=1;rounded=0;entryX=0;entryY=0.5;entryDx=0;entryDy=0;exitX=1;exitY=0.5;exitDx=0;exitDy=0;" edge="1" parent="1" source="Mx6JdNAIDPZeF-GQ_guS-16" target="Mx6JdNAIDPZeF-GQ_guS-10">
          <mxGeometry width="50" height="50" relative="1" as="geometry">
            <mxPoint x="280" y="-390" as="sourcePoint" />
            <mxPoint x="330" y="-440" as="targetPoint" />
          </mxGeometry>
        </mxCell>
        <mxCell id="Mx6JdNAIDPZeF-GQ_guS-18" value="colocado" style="ellipse;whiteSpace=wrap;html=1;" vertex="1" parent="1">
          <mxGeometry x="560" y="-445" width="120" height="80" as="geometry" />
        </mxCell>
        <mxCell id="Mx6JdNAIDPZeF-GQ_guS-19" value="" style="endArrow=none;html=1;rounded=0;entryX=1;entryY=0.5;entryDx=0;entryDy=0;" edge="1" parent="1">
          <mxGeometry width="50" height="50" relative="1" as="geometry">
            <mxPoint x="480" y="-402.5" as="sourcePoint" />
            <mxPoint x="470" y="-402.5" as="targetPoint" />
            <Array as="points">
              <mxPoint x="560" y="-402" />
            </Array>
          </mxGeometry>
        </mxCell>
        <mxCell id="Mx6JdNAIDPZeF-GQ_guS-22" value="colocação" style="rounded=0;whiteSpace=wrap;html=1;" vertex="1" parent="1">
          <mxGeometry x="345" y="-230" width="120" height="60" as="geometry" />
        </mxCell>
        <mxCell id="Mx6JdNAIDPZeF-GQ_guS-26" value="" style="endArrow=none;html=1;rounded=0;entryX=0.5;entryY=1;entryDx=0;entryDy=0;" edge="1" parent="1" target="Mx6JdNAIDPZeF-GQ_guS-12">
          <mxGeometry width="50" height="50" relative="1" as="geometry">
            <mxPoint x="405" y="-230" as="sourcePoint" />
            <mxPoint x="430" y="-270" as="targetPoint" />
          </mxGeometry>
        </mxCell>
        <mxCell id="Mx6JdNAIDPZeF-GQ_guS-27" value="" style="endArrow=classic;startArrow=classic;html=1;rounded=0;entryX=0.5;entryY=1;entryDx=0;entryDy=0;startFill=1;" edge="1" parent="1" target="Mx6JdNAIDPZeF-GQ_guS-18">
          <mxGeometry width="50" height="50" relative="1" as="geometry">
            <mxPoint x="620" y="-200" as="sourcePoint" />
            <mxPoint x="640" y="-350" as="targetPoint" />
            <Array as="points">
              <mxPoint x="470" y="-200" />
              <mxPoint x="620" y="-200" />
            </Array>
          </mxGeometry>
        </mxCell>
      </root>
    </mxGraphModel>
  </diagram>
</mxfile>
